<svg width="800px" height="480px" viewBox="0 0 800 480" version="1.1" xmlns="http://www.w3.org/2000/svg" xmlns:xlink="http://www.w3.org/1999/xlink" xmlns:sketch="http://www.bohemiancoding.com/sketch/ns">
    <title>infography101</title>
    <description>Created with Sketch (http://www.bohemiancoding.com/sketch)</description>
    <defs></defs>
    <g id="Page-1" stroke="none" stroke-width="1" fill="none" fill-rule="evenodd" sketch:type="MSPage">
        <rect id="box" stroke="#979797" fill="#D8D8D8" x="0" y="0" width="800" height="480"></rect>
        <path d="M51.2883136,431.129691 C50.6080806,430.334135 50.5970583,428.992761 51.2599706,428.148288 L61.5437715,415.083412 C62.2082584,414.238939 62.0665431,414.150114 61.2304234,414.885167 L60.6100256,415.429697 C59.7754805,416.16475 58.2937692,417.264109 57.3190834,417.87558 L56.5648435,418.348022 C55.5885831,418.959492 53.9997981,419.961017 53.0282615,420.577637 C53.0282615,420.577637 49.9672129,422.520183 49.1799061,422.548504 C48.3894501,422.576824 45.3394237,422.88964 45.3394237,422.88964 C44.1206729,423.013221 42.999548,422.347684 42.8499598,421.409237 C42.6987969,420.472078 41.6894696,420.092322 40.6092847,420.567339 L39.6062559,421.008885 C38.526071,421.483901 36.6507063,421.807015 35.4429778,421.727202 C34.2336746,421.648676 33.2637127,420.932934 33.2857572,420.139953 C33.3093764,419.345685 33.5250985,418.508935 33.7628651,418.282369 C34.0006318,418.053229 33.192855,417.847259 31.9662311,417.822801 L31.1285367,417.804778 C29.9019128,417.781607 27.9934812,417.405713 26.8865279,416.969316 C26.8865279,416.969316 24.730882,416.120981 24.1671704,415.841636 C23.6034587,415.563577 20.5172162,413.908101 20.5172162,413.908101 C19.4921428,413.357133 19.5000159,412.468892 20.5392608,411.933372 L20.9108696,411.740276 C21.9485399,411.204757 23.2554691,410.38088 23.8160315,409.909726 C24.3750193,409.437284 25.79847,408.828388 26.9794301,408.554192 L27.0140716,408.546468 C28.1950317,408.272272 29.7350038,408.049568 30.438856,408.050855 C31.1427082,408.05343 31.3568557,407.452257 30.9159639,406.715918 C30.4734975,405.979578 30.923837,405.213631 31.9174181,405.014098 C32.9109992,404.813279 34.6981856,404.85061 35.8885934,405.097773 L36.6696017,405.258687 C37.8600095,405.507137 39.8204033,405.858572 41.0265573,406.043944 L42.1634283,406.216443 C43.3711568,406.401815 45.329976,406.759686 46.5172346,407.014573 L48.1690042,407.367295 C49.3546882,407.620895 49.6176487,407.385317 48.7531858,406.842074 C47.8871484,406.297543 46.2322296,405.577939 45.0748887,405.243239 L41.0580496,404.074364 C39.9007086,403.739665 37.9576356,403.363771 36.7404593,403.241477 L34.2557192,402.991739 C33.0353937,402.869445 31.0466568,402.650603 29.8310552,402.505137 L25.3040413,401.965756 C24.0900143,401.819003 23.4365497,401.398054 23.850673,401.026022 C24.266371,400.655278 23.7231293,399.961419 22.6445191,399.483829 L22.5154008,399.427187 C21.4352159,398.949596 19.8684754,397.957083 19.0339303,397.222031 L18.8119098,397.027647 C17.9773646,396.291308 16.8121506,395.170064 16.2263944,394.535421 C15.6390635,393.900779 16.1082984,393.112947 17.2703631,392.784684 L19.5236351,392.148755 C20.6841252,391.821779 22.3280218,391.237341 23.1767384,390.851149 L23.7404501,391.129208 C24.3025871,391.407266 26.2141679,391.953084 26.2141679,391.953084 C27.3730835,392.283922 27.5321194,392.047057 26.5700306,391.425288 L23.1357985,389.211121 C22.1737096,388.588064 20.6431853,387.524749 19.7377825,386.847625 L18.9095358,386.227144 C18.0025584,385.55002 17.026298,384.455809 16.741293,383.794134 C16.4531387,383.135033 16.9381197,382.479794 17.816754,382.33819 C18.696963,382.196586 20.0416829,382.248078 20.8069451,382.45276 C21.569058,382.658729 21.5879534,382.242929 20.8463104,381.532336 C20.1046675,380.820455 19.0780195,379.558895 18.5646955,378.728582 C18.0513714,377.898269 17.4467199,376.610962 17.2215501,375.865611 C16.997955,375.121548 17.2609155,374.686438 17.8073063,374.898844 C18.3552719,375.112537 18.7473506,374.504928 18.6780676,373.549747 C18.6087846,372.594565 18.5568224,370.991868 18.5615462,369.987769 L18.5835908,364.23222 C18.5883147,363.228121 19.4826951,362.786575 20.5707531,363.250005 L25.7717015,365.462885 C26.8597595,365.926316 28.4170522,366.729595 29.2311274,367.247093 C30.0467772,367.763303 31.1946705,368.907718 31.7867252,369.786949 L31.9552088,370.037974 C32.5472635,370.917204 33.5140762,370.98157 34.1077055,370.179577 C34.6997602,369.378873 35.6681475,369.441951 36.2617768,370.321181 L37.2821264,371.835054 C37.8757556,372.714284 38.6788085,374.211422 39.0677381,375.162742 L39.4787122,376.165554 C39.8676418,377.116874 40.3274289,378.483993 40.5006364,379.202311 C40.6738439,379.921915 41.1210341,379.727532 41.4957921,378.77235 L41.577672,378.562519 C41.9524301,377.607337 42.8956235,376.197737 43.6734826,375.430502 C44.4513417,374.663267 45.7063087,374.682577 46.4621232,375.47427 L46.7471282,375.771638 C47.5029427,376.562044 48.7390143,377.855788 49.4932542,378.647481 L49.7798339,378.944849 C50.5340737,379.736543 51.127703,381.204073 51.0977854,382.208172 L51.0773154,382.893019 C51.0473977,383.895831 51.3418505,385.063418 51.7323546,385.486942 C52.1244334,385.910466 52.4047146,385.766288 52.3559016,385.166403 C52.3055139,384.56523 52.6645258,383.320405 53.152656,382.399981 L53.311692,382.096176 C53.7998222,381.175752 54.5304428,379.973407 54.9335439,379.425015 C55.3397942,378.876622 56.5050082,378.88692 57.5253578,379.445612 L57.6450284,379.511264 C58.6653779,380.071243 60.0226948,381.228531 60.6635625,382.08459 L62.0744162,383.962771 C62.7152839,384.81883 63.3671739,385.111049 63.5246353,384.612861 C63.680522,384.114673 64.1387345,383.962771 64.5418356,384.276874 C64.943362,384.590977 65.4377907,385.63627 65.6393412,386.600462 C65.8424664,387.564655 66.5164009,388.369222 67.1367987,388.387244 C67.758771,388.406554 68.5240332,389.160916 68.8405305,390.06718 C69.1586024,390.972156 69.1460055,392.502764 68.8153367,393.469531 L67.8123079,396.403303 C67.481639,397.370071 66.8738382,398.934149 66.4644387,399.880319 L65.0346896,403.165526 C64.6252901,404.111696 63.8962441,405.491689 63.4191362,406.234465 C62.938879,406.977241 62.6570232,408.298018 62.7861415,409.168237 C62.9184091,410.039744 63.3199355,410.898378 63.680522,411.077313 C64.0426831,411.256249 64.8567583,410.698845 65.4929022,409.840211 L73.1628446,399.464519 C73.7974139,398.605885 74.631959,397.124195 75.019314,396.171588 L75.1704768,395.798269 C75.5578318,394.844375 76.1483118,393.276435 76.4852791,392.310955 L76.6317182,391.891293 C76.9686855,390.925813 76.7970526,389.400355 76.2522363,388.500527 L75.6963978,387.582678 C75.1500069,386.684137 74.1485527,385.265525 73.4683196,384.430063 L69.0940433,379.058132 C68.4138102,378.22267 67.2848123,376.864561 66.5872586,376.039398 L65.1606587,374.355601 C64.4615303,373.531724 63.7230366,372.302346 63.5199114,371.625223 C63.3152117,370.949387 63.2286079,369.577118 63.3278086,368.576881 L63.4411807,367.419592 C63.5388068,366.419354 64.3639043,365.686877 65.2724563,365.791149 C66.1810083,365.895421 67.5162805,366.272601 68.2390281,366.630473 C68.9617757,366.985769 70.0167668,367.742706 70.5820531,368.310408 C71.1473393,368.87811 71.6386187,369.072494 71.670111,368.74423 C71.7031779,368.41468 71.1930031,367.450487 70.5379639,366.602152 C70.5379639,366.602152 69.3727499,365.096003 69.527062,364.542461 C69.6797995,363.988919 69.824664,361.969135 69.824664,361.969135 C69.8970962,360.96761 69.8766262,359.328869 69.7742763,358.328631 L69.742784,358.000368 C69.6404342,357.001418 70.4293155,356.565021 71.4921797,357.032314 C72.5550438,357.499606 73.7312801,357.100541 74.1060381,356.145359 L74.187918,355.935528 C74.562676,354.980347 75.1200892,353.403396 75.4255642,352.431479 C75.4255642,352.431479 75.4397358,352.387711 77.4032788,350.425855 L79.3652473,348.462712 C80.132084,347.804899 81.1760528,346.861303 81.6862276,346.364402 C82.1948278,345.867502 82.9947314,346.218937 83.4639663,347.145798 L83.7347998,347.682605 C84.2040346,348.609465 84.9566999,350.132349 85.4038901,351.066934 L85.4873446,351.239433 C85.9345349,352.174018 86.671454,353.686603 87.1233681,354.600591 C87.5752822,355.513292 87.8224965,356.814759 87.6744828,357.490595 C87.5280437,358.165143 87.6366921,358.408444 87.9185479,358.028689 C88.1972545,357.650221 88.5562664,356.525115 88.7153023,355.530027 L88.912129,354.294212 C89.0695904,353.299124 89.7450996,351.796837 90.4127357,350.953651 L91.8031195,349.200339 C92.4707556,348.358441 93.6958049,347.06341 94.522477,346.323209 L94.5287755,346.318059 C95.3554476,345.577858 96.7458313,344.393536 97.6181672,343.686804 L98.2968256,343.13455 C99.1691615,342.426531 100.07299,342.602892 100.307607,343.524604 C100.54065,344.447603 100.942176,346.005244 101.197264,346.986172 L101.268121,347.261655 C101.523209,348.242583 101.43818,349.829832 101.076018,350.788876 L99.7297239,354.363727 C99.3675628,355.32277 99.5565164,355.388423 100.150146,354.509192 L100.643,353.778002 C101.236629,352.898772 101.888519,351.370738 102.094793,350.380799 L102.649057,347.7135 C102.855332,346.724848 103.409596,345.156909 103.88198,344.231335 C103.88198,344.231335 104.729122,342.568135 105.182611,341.955377 C105.636099,341.341331 106.180915,340.602417 106.180915,340.602417 C106.817059,339.743784 107.692544,338.558174 108.130287,337.9673 C108.56803,337.376427 109.303374,337.5515 109.76631,338.356067 C110.227672,339.159346 110.504804,340.6346 110.383559,341.63355 L110.320574,342.14976 C110.199329,343.14871 110.470163,343.202777 110.923651,342.270767 L111.246447,341.607804 C111.699936,340.675794 112.690368,339.26748 113.447757,338.477074 L115.187705,336.659397 C115.945094,335.86899 117.165419,334.955003 117.900764,334.628027 C118.636108,334.299763 118.947882,334.73616 118.592019,335.597369 C118.237731,336.458577 118.505416,336.874377 119.190372,336.521655 L119.530489,336.060799 C119.870605,335.601231 122.127027,334.434931 122.127027,334.434931 C123.164697,333.898124 124.977077,333.22615 126.154888,332.941655 L131.546365,331.637613 C132.724176,331.353118 133.591788,331.637613 133.473692,332.270968 C133.35717,332.904323 133.21388,334.243122 133.157194,335.245934 L133.084762,336.488185 C133.028076,337.490997 132.842272,339.043489 132.673788,339.938167 C132.50373,340.834133 131.845541,342.26948 131.210972,343.128113 L130.911795,343.533615 C130.277226,344.392248 128.97817,345.612615 128.025529,346.24597 L124.440134,348.627488 C123.489067,349.259555 122.638776,350.02679 122.556896,350.330595 C122.471867,350.634399 123.328457,350.564884 124.460604,350.176118 L125.843115,349.699814 C126.973687,349.311048 128.534129,349.305898 129.307264,349.688228 C130.080399,350.070559 130.195346,350.929192 129.562352,351.59473 C128.930932,352.260267 127.668092,353.355765 126.757965,354.029027 L124.973928,355.347229 C124.063801,356.02049 122.509658,357.05806 121.522375,357.654083 L119.576153,358.825532 C118.58887,359.420268 116.963869,360.385748 115.967139,360.971472 L115.524672,361.230221 C114.527942,361.814658 114.642889,361.987157 115.781334,361.611264 L116.722953,361.299735 C117.859824,360.923842 119.695823,360.259592 120.801202,359.821907 L121.490883,359.550286 C122.596261,359.112601 124.218113,358.874449 125.096748,359.019915 C125.975382,359.166668 127.683838,359.41898 128.894716,359.581181 L130.315017,359.77299 C131.527469,359.936478 131.998279,360.77194 131.36371,361.630573 L131.062958,362.036075 C130.428389,362.894709 129.163974,364.148545 128.253848,364.821807 L124.777101,367.39642 C123.866975,368.069682 122.218354,368.97852 121.11455,369.417492 L112.440004,372.85975 C111.3362,373.298722 109.569484,374.076255 108.512918,374.588603 L103.157658,377.19025 C102.102666,377.702598 100.539075,378.710559 99.6840601,379.430164 L94.6468715,383.673127 C93.7918563,384.394019 93.9540415,384.560081 95.0058833,384.042584 L98.8258957,382.163116 C99.8777376,381.646906 101.630282,380.843627 102.716766,380.378909 L105.125924,379.349064 C106.213982,378.884346 108.078325,378.307632 109.270307,378.066906 L110.353641,377.849351 C111.545624,377.609912 113.474525,377.158067 114.639739,376.846539 L120.2989,375.332666 C121.464114,375.021138 122.652948,375.54121 122.939527,376.487381 L122.599411,376.948236 L122.259294,377.407805 C121.719202,377.948474 122.245123,378.171178 123.429232,377.903418 L124.356679,377.6923 C125.540789,377.42454 127.45237,377.483756 128.608136,377.823605 L128.614434,377.82618 C129.770201,378.166029 131.552663,378.247129 132.576162,378.003828 C133.601235,377.761814 135.201043,377.705173 136.131639,377.876385 C137.060661,378.047596 138.471515,378.321793 139.268269,378.483993 C140.063449,378.646194 140.10124,379.431451 139.354873,380.227007 L137.238593,382.482368 C136.490651,383.279211 135.013664,384.345101 133.953949,384.853587 L132.64387,385.48308 C131.584155,385.991566 130.929116,386.745928 131.185778,387.160441 C131.44244,387.574954 131.264509,388.052545 130.787401,388.219894 C130.311868,388.387244 128.934081,388.671739 127.726352,388.850675 L127.228774,388.924051 C126.021046,389.104274 125.655735,389.65138 126.419423,390.144418 L126.979985,390.422476 C127.545272,390.700535 129.420636,391.627395 128.331004,391.717507 C127.238222,391.806331 123.857527,392.568417 123.857527,392.568417 C122.674992,392.834889 120.717748,392.912128 119.50687,392.738341 L115.565612,392.174501 C114.356309,392.000714 114.126415,392.236291 115.055437,392.69586 C115.982885,393.154141 117.028428,394.001189 117.377992,394.576615 C117.725982,395.152041 118.442431,395.977205 118.966777,396.40974 C119.492698,396.842275 118.962053,397.433149 117.785817,397.721506 L116.115152,398.130869 C114.940491,398.419226 113.198968,398.695997 112.247901,398.743627 C111.29526,398.791257 109.533268,398.670251 108.330263,398.47458 L104.478758,397.845087 C103.275754,397.648129 101.326382,397.256788 100.148571,396.976155 L93.7666625,395.449409 C92.5888516,395.167489 90.631607,394.810905 89.4191546,394.656428 L88.6806608,394.561167 C87.4682084,394.406691 85.5786722,394.401541 84.4827412,394.549582 C83.3852356,394.698909 81.6767799,395.303943 80.6831988,395.894817 L80.6391096,395.920563 C79.6455285,396.511437 78.3464723,397.712494 77.752843,398.590438 L68.6421292,412.028633 C68.0500745,412.906576 68.0516491,413.583699 68.6515769,413.534782 C69.2515046,413.484577 70.4041217,413.251574 71.2103238,413.017284 C72.0181006,412.782995 73.1392254,411.969417 73.6997878,411.211193 C74.2603502,410.451682 74.9972694,409.042081 75.3342367,408.077888 L76.4238692,404.980628 C76.7624111,404.016436 77.5953817,402.543757 78.2756147,401.709582 L78.5999851,401.311804 C79.2786435,400.476342 80.5147151,399.187748 81.3429618,398.446259 L82.85774,397.094587 C83.6859868,396.354386 84.7504255,396.317054 85.2243842,397.010912 C85.6967682,397.704771 86.0636532,398.688273 86.0416086,399.194185 C86.019564,399.701383 86.5187165,399.571365 87.1517111,398.905828 C87.7862804,398.239003 88.9892851,397.469193 89.8285541,397.192422 C90.6678231,396.916939 92.3054212,396.427762 93.4674859,396.105936 L97.9330899,394.868834 C99.0951547,394.547007 100.570568,394.984691 101.211435,395.84075 L102.360903,397.379082 C103.000196,398.235141 103.174978,399.563642 102.748258,400.332164 C102.321538,401.099399 101.794042,401.969618 101.576746,402.264411 C101.357874,402.560492 101.466523,402.802505 101.819236,402.803793 C102.1688,402.803793 101.834982,403.450021 101.074444,404.236565 L99.460465,405.910064 C98.6999267,406.697896 97.1457831,407.649215 96.0073375,408.025109 L94.0485183,408.671337 C92.9116474,409.04723 91.1402072,409.787432 90.1135591,410.316515 C89.0884857,410.845598 89.2239025,411.08375 90.4158849,410.843023 L94.5098801,410.019147 C95.7018625,409.778421 97.5677795,409.202995 98.6558375,408.738277 L105.168439,405.966705 C106.256497,405.503275 107.577598,405.241952 108.105093,405.38613 C108.632589,405.531596 110.067062,405.657752 111.293686,405.66805 L112.433706,405.678349 C113.66033,405.68736 115.508926,405.877881 116.541872,406.100585 C117.576394,406.323289 118.08027,407.044181 117.662997,407.701995 C117.248874,408.359809 116.189159,409.472042 115.30895,410.171049 L114.772007,410.598435 C113.893373,411.297443 112.825785,412.028633 112.402214,412.221729 C111.977068,412.414825 112.600615,412.359471 113.78315,412.099435 L116.511955,411.498263 C117.696064,411.238227 119.654883,411.16485 120.865761,411.338636 C120.865761,411.338636 122.835603,411.620557 123.586693,411.991301 C124.337784,412.360758 126.876061,413.381592 126.876061,413.381592 C127.976716,413.825713 128.445951,414.537594 127.916881,414.967554 C127.38781,415.397515 126.617824,415.815889 126.203701,415.900852 C125.788003,415.984527 126.126545,416.150589 126.954792,416.271596 C127.779889,416.392603 129.234832,416.686109 130.182749,416.925548 C131.133816,417.1637 132.747795,417.815077 133.769719,418.371193 L134.2547,418.636378 C135.276624,419.192495 136.860685,420.195307 137.773961,420.865994 L141.42549,423.547454 C142.338766,424.219428 142.195476,425.147576 141.107418,425.611007 C141.107418,425.611007 137.851117,426.997436 137.136243,427.27292 C136.419794,427.547116 131.204674,429.156249 131.204674,429.156249 C130.055206,429.510259 128.168819,429.757422 127.013052,429.704642 C125.854137,429.650575 124.016563,429.225764 122.930079,428.761046 L120.656338,427.790417 C119.56828,427.325699 117.760623,426.611244 116.639498,426.203168 L115.874236,425.923822 C114.753111,425.515746 114.608247,425.70498 115.553015,426.346059 L118.940009,428.643901 C119.883202,429.28498 120.081604,430.043204 119.377751,430.327698 C118.673899,430.613481 117.381141,430.726764 116.500932,430.581298 C115.622298,430.435832 115.685283,430.832323 116.641073,431.463103 L116.954421,431.669072 C117.910212,432.299852 117.689766,432.875279 116.466291,432.949942 L112.603764,433.182945 C111.380289,433.256321 109.72852,433.184232 108.931765,433.020744 C108.13816,432.858544 107.38392,433.097983 107.259526,433.553689 C107.133557,434.009396 106.169893,433.957904 105.121201,433.440406 L104.248865,433.009158 C103.198597,432.491661 101.515336,431.594408 100.512307,431.017695 L96.2514026,428.574387 C95.2467992,427.996386 93.5808581,427.079824 92.5510609,426.534005 L84.5189573,422.276882 C83.4875855,421.731064 83.4246009,421.803153 84.3772421,422.435221 L88.2996044,425.042017 C89.2506709,425.674085 90.6898677,426.810776 91.4976444,427.566425 L92.3479357,428.363268 C93.1557125,429.118917 94.4012318,430.404937 95.1161063,431.219802 L97.3788259,433.799565 C98.0952751,434.61443 98.0811036,435.079148 97.3473337,434.833272 C96.6135638,434.587397 96.2403803,435.014782 96.5159377,435.783305 C96.7899205,436.554401 96.9552549,438.003909 96.8812481,439.005433 L96.8355843,439.604031 C96.7615774,440.605556 95.7065864,441.305851 94.4925593,441.161672 L94.4358733,441.153948 C93.2218462,441.00977 91.4693014,440.514157 90.5402794,440.055876 L89.7891888,439.685131 C89.0396727,439.314387 88.8333984,439.251309 88.8333984,439.251309 C87.6855051,438.893438 86.602171,439.188231 86.4226651,439.906548 C86.2447337,440.624865 85.4385316,441.169396 84.6339041,441.116616 C83.8261274,441.06255 82.4168483,440.554063 81.4988486,439.985074 C80.5808489,439.417372 79.6549762,438.487936 79.4392541,437.920234 C79.223532,437.355106 78.5118067,436.197817 77.8567675,435.348195 L77.6221501,435.04439 C76.9671109,434.196055 76.3923769,434.096933 76.3482878,434.822974 C76.3057732,435.551589 75.7578077,436.836321 75.1342607,437.679507 C74.5107138,438.522693 73.536028,438.983549 72.9691671,438.702916 C72.4007317,438.422283 71.4575382,437.671784 70.8717819,437.037141 C70.2828765,436.402499 69.5632781,435.084297 69.2688254,434.109806 L69.0767225,433.468727 C68.7806952,432.495523 68.4641979,430.879953 68.3712957,429.878428 L68.1351036,427.36818 C68.0422014,426.367943 67.9477246,424.727914 67.92568,423.725102 L67.8138825,418.275933 C67.7918379,417.271833 67.4973852,416.36042 67.155694,416.249712 C66.8140029,416.137716 65.9668608,416.724728 65.2724563,417.551179 L63.5718737,419.574825 C62.8758945,420.402563 61.7342997,421.752948 61.0320221,422.575537 L53.7982476,431.080773 C53.0959699,431.904649 51.9685466,431.926533 51.2883136,431.129691" id="Fill-1" fill="#000000" transform="translate(79.000000, 386.353849) scale(-1, 1) translate(-79.000000, -386.353849) "></path>
        <path d="M88.0001606,444.033866 C87.5951425,443.482472 87.5885797,442.552776 87.9832849,441.967478 L94.1063717,432.912307 C94.5020145,432.327008 94.4176357,432.265445 93.9198009,432.774904 L93.5504093,433.152315 C93.0535121,433.661774 92.171285,434.423732 91.5909465,434.847538 L91.1418639,435.174984 C90.5605879,435.59879 89.614608,436.292939 89.0361446,436.720314 C89.0361446,436.720314 87.2135629,438.066679 86.7447919,438.086308 C86.2741458,438.105937 84.4581269,438.322747 84.4581269,438.322747 C83.7324694,438.4084 83.0649395,437.947121 82.975873,437.29669 C82.885869,436.647152 82.2849045,436.383946 81.6417507,436.713176 L81.0445365,437.019209 C80.4013827,437.348439 79.2847701,437.572387 78.5656754,437.517069 C77.8456431,437.462644 77.2681173,436.966568 77.2812428,436.416958 C77.295306,435.866457 77.4237492,435.286512 77.5653181,435.129481 C77.7068869,434.970665 77.2259279,434.827909 76.4955826,434.810957 L75.9968103,434.798466 C75.2664651,434.782406 74.1301642,434.521877 73.4710721,434.219413 C73.4710721,434.219413 72.1875771,433.631438 71.8519371,433.437826 C71.516297,433.245106 69.6787147,432.097707 69.6787147,432.097707 C69.0683748,431.715836 69.0730626,431.100202 69.6918403,430.729037 L69.9131002,430.595203 C70.5309404,430.224039 71.3091003,429.653016 71.6428652,429.326462 C71.9756926,428.999017 72.8232306,428.576995 73.5263871,428.386952 L73.547013,428.381598 C74.2501695,428.191555 75.1670856,428.0372 75.5861669,428.038092 C76.0052482,428.039877 76.1327539,427.623209 75.8702421,427.112857 C75.6067928,426.602506 75.8749298,426.071633 76.4665188,425.933338 C77.0581078,425.794152 78.122218,425.820026 78.8309998,425.991333 L79.2960206,426.102861 C80.0048024,426.27506 81.1720422,426.518637 81.8901994,426.647117 L82.5671047,426.766675 C83.2861994,426.895155 84.4525017,427.143193 85.1594083,427.319853 L86.1428899,427.564322 C86.848859,427.74009 87.0054286,427.576813 86.490718,427.200295 C85.9750699,426.822885 84.9897132,426.324132 84.3006199,426.092154 L81.9089502,425.282016 C81.2198568,425.050038 80.06293,424.789508 79.33821,424.704747 L77.8587687,424.531656 C77.1321737,424.446895 75.9480581,424.295217 75.2242757,424.194396 L72.5288424,423.820554 C71.8059975,423.718841 71.4169176,423.427084 71.6634911,423.169232 C71.9110022,422.912271 71.5875502,422.431363 70.945334,422.100348 L70.8684555,422.061091 C70.2253017,421.730076 69.2924474,421.042172 68.7955501,420.532713 L68.6633567,420.397987 C68.1664594,419.887635 67.4726784,419.110509 67.1239127,418.670643 C66.7742096,418.230777 67.0535971,417.684737 67.7455031,417.45722 L69.0871257,417.016462 C69.7780942,416.789837 70.756888,416.384768 71.2622232,416.117101 L71.5978632,416.309821 C71.9325657,416.502541 73.0707417,416.880844 73.0707417,416.880844 C73.7607726,417.110145 73.8554643,416.945976 73.2826262,416.515032 L71.2378471,414.980409 C70.6650089,414.548573 69.7537181,413.811597 69.2146314,413.342288 L68.7214843,412.912236 C68.1814601,412.442927 67.6001841,411.684537 67.430489,411.225935 C67.2589188,410.769116 67.5476817,410.314975 68.0708302,410.21683 C68.5949161,410.118686 69.395577,410.154375 69.8512224,410.296238 C70.3049928,410.438994 70.3162433,410.150806 69.874661,409.658299 C69.4330787,409.1649 68.8218013,408.290521 68.5161626,407.715037 C68.2105239,407.139553 67.8505078,406.24733 67.7164393,405.730733 C67.5833083,405.215028 67.7398778,404.913457 68.0652049,405.060674 C68.3914695,405.208783 68.6249175,404.787654 68.5836656,404.125624 C68.5424138,403.463595 68.5114749,402.352777 68.5142875,401.656843 L68.5274131,397.667714 C68.5302257,396.97178 69.0627496,396.665748 69.7105911,396.986948 L72.8072924,398.520679 C73.4551339,398.84188 74.382363,399.398627 74.8670722,399.7573 C75.3527189,400.115082 76.0361871,400.908268 76.3887029,401.517656 L76.4890198,401.69164 C76.8415356,402.301028 77.4171864,402.345639 77.7706398,401.789784 C78.1231556,401.234822 78.6997439,401.278541 79.0531972,401.887929 L79.6607245,402.937183 C80.0141778,403.546571 80.4923242,404.584227 80.7238971,405.24358 L80.9685956,405.938621 C81.2001684,406.597974 81.4739307,407.545515 81.5770603,408.043375 C81.68019,408.542128 81.9464519,408.407402 82.1695869,407.745373 L82.2183391,407.59994 C82.4414741,406.937911 83.0030617,405.960927 83.4662075,405.429162 C83.9293532,404.897397 84.6765742,404.91078 85.1265944,405.459497 L85.2962895,405.665601 C85.7463096,406.213426 86.4822801,407.11011 86.9313627,407.658827 L87.1019954,407.864931 C87.551078,408.413648 87.9045313,409.430782 87.8867181,410.126716 L87.87453,410.601379 C87.8567167,411.29642 88.0320371,412.105666 88.2645475,412.399208 C88.4979954,412.692749 88.6648779,412.59282 88.6358141,412.177044 C88.6058128,411.760376 88.8195723,410.897597 89.1102104,410.259657 L89.2049021,410.049093 C89.4955401,409.411153 89.9305596,408.577817 90.1705704,408.19773 C90.4124562,407.817643 91.1062373,407.824781 91.7137645,408.212005 L91.7850177,408.257509 C92.3925449,408.645626 93.2007062,409.447734 93.5822858,410.041063 L94.4223234,411.342816 C94.803903,411.936144 95.1920454,412.138679 95.2857996,411.793388 C95.3786162,411.448098 95.651441,411.342816 95.8914517,411.560518 C96.1305249,411.778221 96.4249131,412.502706 96.5449185,413.170981 C96.6658614,413.839256 97.0671294,414.396895 97.436521,414.409386 C97.80685,414.42277 98.2624955,414.945612 98.4509414,415.573737 C98.6403249,416.20097 98.6328246,417.261823 98.4359407,417.931883 L97.8387265,419.965259 C97.6418427,420.635318 97.2799514,421.719369 97.0361905,422.375153 L96.1849024,424.652106 C95.9411414,425.30789 95.5070595,426.264353 95.2229843,426.779166 C94.937034,427.293978 94.7692139,428.209399 94.8460924,428.812542 C94.9248459,429.416577 95.1639191,430.01169 95.3786162,430.135709 C95.5942509,430.259728 96.0789601,429.873395 96.4577271,429.278282 L101.024494,422.086965 C101.402324,421.491852 101.899221,420.464904 102.129856,419.804659 L102.21986,419.545914 C102.450496,418.884777 102.802074,417.798049 103.002708,417.128882 L103.089899,416.838017 C103.290533,416.16885 103.188341,415.111566 102.863952,414.487902 L102.532999,413.851747 C102.207672,413.228975 101.611396,412.245746 101.206377,411.666693 L98.6018857,407.943446 C98.1968675,407.364394 97.5246499,406.423098 97.1093188,405.851183 L96.2599057,404.684156 C95.8436371,404.113133 95.4039299,403.26106 95.282987,402.791751 C95.1611065,402.323334 95.1095417,401.372224 95.1686068,400.678967 L95.2361099,399.876858 C95.2942375,399.183601 95.7855095,398.675926 96.3264712,398.748196 C96.867433,398.820466 97.6624686,399.081888 98.0928004,399.329926 C98.5231321,399.576179 99.1512853,400.100806 99.4878629,400.494277 C99.8244404,400.887747 100.116954,401.022473 100.135704,400.794956 C100.155393,400.566547 99.8516292,399.898272 99.4616117,399.310297 C99.4616117,399.310297 98.7678306,398.266396 98.8597097,397.88274 C98.9506513,397.499084 99.0369052,396.099186 99.0369052,396.099186 C99.0800321,395.405037 99.067844,394.269237 99.0069038,393.57598 L98.988153,393.348463 C98.9272127,392.656098 99.3969213,392.353634 100.029762,392.677511 C100.662603,393.001388 101.362947,392.724799 101.586082,392.062769 L101.634834,391.917337 C101.857969,391.255308 102.189859,390.162334 102.371742,389.488706 C102.371742,389.488706 102.38018,389.45837 103.549295,388.098623 L104.717472,386.737983 C105.174055,386.282057 105.795646,385.628057 106.099409,385.283659 C106.402235,384.939261 106.878507,385.182838 107.157894,385.825238 L107.319151,386.197295 C107.598539,386.839696 108.046684,387.895196 108.312946,388.54295 L108.362636,388.662508 C108.628897,389.310261 109.067667,390.358623 109.336742,390.992102 C109.605816,391.624688 109.75301,392.526725 109.664881,392.995142 C109.57769,393.462667 109.64238,393.631297 109.8102,393.368092 C109.976145,393.105778 110.189905,392.325975 110.284597,391.636287 L110.401789,390.779753 C110.495544,390.090064 110.897749,389.04884 111.295267,388.464434 L112.123117,387.249226 C112.520634,386.665712 113.250042,385.768136 113.742252,385.255108 L113.746002,385.251539 C114.238211,384.738511 115.066061,383.917666 115.585459,383.427835 L115.98954,383.045072 C116.508938,382.554349 117.047087,382.676584 117.186781,383.315415 C117.325537,383.955139 117.56461,385.034729 117.716492,385.714603 L117.758682,385.905539 C117.910563,386.585412 117.859936,387.685523 117.644301,388.350229 L116.842703,390.827933 C116.627068,391.492639 116.739573,391.538142 117.093027,390.928754 L117.386477,390.421971 C117.739931,389.812583 118.128073,388.753514 118.250891,388.067395 L118.580906,386.218709 C118.703724,385.533482 119.033739,384.446754 119.315001,383.805246 C119.315001,383.805246 119.819399,382.652494 120.089411,382.227795 C120.359423,381.802205 120.683813,381.290069 120.683813,381.290069 C121.06258,380.694956 121.583853,379.873219 121.84449,379.463689 C122.105126,379.054158 122.542958,379.175501 122.818596,379.73314 C123.093296,380.289887 123.258303,381.312375 123.186112,382.00474 L123.148611,382.362521 C123.07642,383.054886 123.237677,383.092359 123.507689,382.44639 L123.699885,381.986895 C123.969897,381.340926 124.559611,380.364834 125.010569,379.817009 L126.046553,378.55719 C126.497511,378.009365 127.224106,377.375887 127.661938,377.149262 C128.09977,376.921745 128.285403,377.224209 128.073519,377.821106 C127.862572,378.418003 128.021954,378.706191 128.429785,378.461722 L128.632294,378.142306 C128.834803,377.823783 130.178301,377.015429 130.178301,377.015429 C130.796141,376.643372 131.875252,376.177631 132.576533,375.98045 L135.786677,375.076628 C136.487958,374.879447 137.004544,375.076628 136.934228,375.515602 C136.86485,375.954576 136.779534,376.882487 136.745782,377.577529 L136.702655,378.438524 C136.668904,379.133566 136.558274,380.209587 136.457957,380.829682 C136.356702,381.450669 135.96481,382.445498 135.58698,383.040611 L135.408847,383.321661 C135.031018,383.916773 134.257546,384.762601 133.690333,385.201575 L131.55555,386.852187 C130.989274,387.290269 130.483002,387.822033 130.434249,388.032598 C130.383622,388.243163 130.893645,388.194983 131.567738,387.925531 L132.3909,387.595409 C133.064055,387.325958 133.993159,387.322389 134.453492,387.587379 C134.913825,387.852369 134.982266,388.447482 134.605374,388.908761 C134.22942,389.37004 133.477511,390.129322 132.935612,390.595955 L131.873376,391.509591 C131.331477,391.976224 130.406123,392.695355 129.818284,393.108455 L128.659482,393.920378 C128.071644,394.332585 127.1041,395.001752 126.510636,395.407713 L126.247187,395.58705 C125.653723,395.992119 125.722163,396.111677 126.400006,395.851148 L126.960656,395.63523 C127.637562,395.374701 128.730736,394.914314 129.38889,394.610958 L129.799534,394.422699 C130.457688,394.119343 131.423356,393.954282 131.946505,394.055103 C132.469653,394.156817 133.486886,394.331692 134.207856,394.444112 L135.053519,394.577054 C135.775426,394.690366 136.055751,395.269419 135.677922,395.864531 L135.498851,396.145582 C135.121022,396.740694 134.368176,397.60972 133.826276,398.076352 L131.756184,399.860798 C131.214284,400.327431 130.232678,400.95734 129.575461,401.261588 L124.410542,403.647393 C123.753325,403.951641 122.701403,404.490543 122.072312,404.845648 L118.883732,406.648831 C118.255579,407.003935 117.3246,407.702546 116.815514,408.201299 L113.816317,411.142066 C113.307232,411.641711 113.403799,411.756807 114.030077,411.398134 L116.304554,410.095488 C116.930832,409.737707 117.974316,409.18096 118.62122,408.858867 L120.055659,408.145089 C120.703501,407.822996 121.813551,407.42328 122.52327,407.256435 L123.168299,407.105649 C123.878018,406.939695 125.026507,406.626525 125.720288,406.410607 L129.089814,405.361353 C129.783595,405.145435 130.49144,405.505893 130.662072,406.161677 L130.459563,406.481093 L130.257054,406.799616 C129.935477,407.17435 130.248616,407.328705 130.953648,407.143122 L131.50586,406.996798 C132.210892,406.811215 133.349068,406.852258 134.037223,407.087804 L134.040974,407.089589 C134.729129,407.325136 135.790427,407.381346 136.399829,407.212716 C137.010169,407.044978 137.962712,407.00572 138.516799,407.124386 C139.069949,407.243051 139.909987,407.433095 140.384383,407.545515 C140.857842,407.657935 140.880343,408.202191 140.435948,408.753585 L139.175891,410.316759 C138.730559,410.869045 137.851144,411.607806 137.220179,411.960234 L136.440144,412.396531 C135.809178,412.748959 135.41916,413.271802 135.57198,413.559098 C135.724799,413.846394 135.618857,414.177408 135.334782,414.293397 C135.051644,414.409386 134.231295,414.606568 133.5122,414.730587 L133.215937,414.781443 C132.496842,414.906354 132.279332,415.285549 132.73404,415.627271 L133.067805,415.819991 C133.404383,416.012711 134.520995,416.655112 133.872216,416.717567 C133.221562,416.77913 131.208659,417.307327 131.208659,417.307327 C130.504565,417.492017 129.3392,417.54555 128.618231,417.4251 L126.271563,417.034306 C125.551531,416.913856 125.41465,417.077133 125.967799,417.395657 C126.520012,417.713288 127.14254,418.300371 127.350674,418.699194 C127.557871,419.098018 127.984452,419.669933 128.296654,419.96972 C128.609793,420.269507 128.293841,420.679037 127.593497,420.878895 L126.598765,421.162622 C125.899359,421.36248 124.862437,421.554308 124.296162,421.58732 C123.728949,421.620332 122.67984,421.536463 121.963557,421.400846 L119.67033,420.964549 C118.954048,420.828038 117.793371,420.556803 117.092089,420.362298 L113.292231,419.304122 C112.59095,419.108725 111.425585,418.861579 110.703678,418.754512 L110.263971,418.688488 C109.542063,418.581421 108.417013,418.577852 107.764484,418.680458 C107.111017,418.783956 106.093784,419.2033 105.502195,419.612831 L105.475944,419.630675 C104.884355,420.040206 104.110883,420.87265 103.757429,421.481146 L98.3328111,430.795061 C97.9802953,431.403557 97.9812329,431.872867 98.3384364,431.838962 C98.6956399,431.804166 99.3819206,431.642673 99.8619421,431.480289 C100.342901,431.317904 101.010431,430.754019 101.344196,430.2285 C101.677961,429.702088 102.116731,428.725104 102.317365,428.056829 L102.966144,425.910141 C103.167715,425.241866 103.663675,424.221162 104.068693,423.643002 L104.261827,423.367305 C104.665907,422.788252 105.401878,421.895137 105.895025,421.381217 L106.79694,420.444383 C107.290087,419.931354 107.923866,419.90548 108.206066,420.386388 C108.487329,420.867296 108.705776,421.548955 108.69265,421.899598 C108.679525,422.251134 108.976726,422.16102 109.353617,421.69974 C109.731447,421.237569 110.447729,420.704019 110.947439,420.512191 C111.447149,420.321256 112.422192,419.982211 113.114098,419.759155 L115.772968,418.901729 C116.464874,418.678673 117.34335,418.982029 117.72493,419.575357 L118.409336,420.641564 C118.789978,421.234892 118.894045,422.155666 118.639971,422.688323 C118.385897,423.220088 118.071821,423.823231 117.94244,424.02755 C117.812121,424.232761 117.876812,424.400499 118.086821,424.401391 C118.294956,424.401391 118.096197,424.849287 117.643364,425.394436 L116.682383,426.554326 C116.229551,427.100366 115.304197,427.759719 114.626354,428.020248 L113.460051,428.468144 C112.783146,428.728673 111.728411,429.241701 111.117134,429.608405 C110.506794,429.975108 110.587423,430.14017 111.297142,429.973324 L113.734751,429.402301 C114.444471,429.235456 115.555458,428.836632 116.203299,428.514539 L120.080973,426.593583 C120.728815,426.272383 121.515412,426.091262 121.829489,426.191191 C122.143566,426.292012 122.997666,426.37945 123.728012,426.386588 L124.406792,426.393725 C125.137137,426.399971 126.237811,426.53202 126.852839,426.686375 C127.468804,426.840729 127.768818,427.340374 127.520369,427.7963 C127.273795,428.252226 126.64283,429.023107 126.118744,429.507584 L125.799042,429.803802 C125.275893,430.288279 124.64024,430.795061 124.388041,430.928895 C124.134905,431.062728 124.506171,431.024363 125.210265,430.844134 L126.835026,430.427466 C127.540057,430.247236 128.70636,430.19638 129.427329,430.31683 C129.427329,430.31683 130.600194,430.512227 131.047402,430.769187 C131.49461,431.025255 133.005927,431.732788 133.005927,431.732788 C133.661269,432.040605 133.940657,432.534004 133.625642,432.832006 C133.310628,433.130009 132.85217,433.419981 132.605597,433.478868 C132.358086,433.536863 132.559657,433.651959 133.052804,433.735828 C133.544076,433.819697 134.410365,434.023124 134.974765,434.189078 C135.541041,434.354139 136.502021,434.805604 137.110486,435.191044 L137.399249,435.374842 C138.007714,435.760282 138.950881,436.455324 139.494655,436.920172 L141.668815,438.778673 C142.21259,439.244413 142.127273,439.887706 141.479432,440.208906 C141.479432,440.208906 139.540595,441.16983 139.114951,441.360766 C138.688369,441.550809 135.58323,442.666088 135.58323,442.666088 C134.898825,442.91145 133.775649,443.082756 133.087493,443.046175 C132.397462,443.008702 131.303351,442.714268 130.656447,442.392176 L129.302636,441.71944 C128.654795,441.397347 127.578497,440.902163 126.910967,440.619329 L126.455321,440.425716 C125.787791,440.142882 125.701537,440.274038 126.264063,440.718365 L128.280715,442.310983 C128.842303,442.755311 128.960433,443.28083 128.541352,443.478011 C128.122271,443.676085 127.352549,443.7546 126.828463,443.653779 C126.305314,443.552958 126.342816,443.827763 126.911904,444.264952 L127.098475,444.407707 C127.667563,444.844897 127.536307,445.24372 126.807837,445.295469 L124.508046,445.456962 C123.779576,445.507818 122.796095,445.457854 122.321698,445.344542 C121.849177,445.232122 121.400095,445.398075 121.326029,445.713922 C121.251026,446.029769 120.67725,445.99408 120.052847,445.635406 L119.533449,445.336512 C118.908108,444.977838 117.905876,444.355959 117.308661,443.956243 L114.771673,442.262803 C114.173521,441.862195 113.181601,441.226933 112.568449,440.84863 L107.786047,437.898049 C107.171957,437.519746 107.134455,437.569711 107.701668,438.007792 L110.037086,439.814544 C110.603361,440.252625 111.460274,441.040458 111.941233,441.564193 L112.447506,442.116479 C112.928465,442.640214 113.670061,443.531545 114.095705,444.096322 L115.442953,445.884337 C115.869534,446.449114 115.861097,446.771206 115.424202,446.600792 C114.987307,446.430377 114.76511,446.726595 114.92918,447.259252 C115.092312,447.793694 115.190754,448.798337 115.146689,449.492486 L115.119501,449.90737 C115.075436,450.601519 114.447283,451.086889 113.724438,450.98696 L113.690687,450.981606 C112.967842,450.881677 111.924358,450.538172 111.371208,450.22054 L110.924,449.96358 C110.47773,449.70662 110.354912,449.662901 110.354912,449.662901 C109.671444,449.414863 109.026415,449.619182 108.919535,450.117042 C108.813593,450.614903 108.333572,450.992313 107.854488,450.955732 C107.373529,450.918259 106.534429,450.565831 105.987842,450.171468 C105.441255,449.777998 104.88998,449.133813 104.761537,448.740342 C104.633093,448.348656 104.209324,447.546548 103.819307,446.957681 L103.679613,446.747116 C103.289596,446.159141 102.947393,446.09044 102.921142,446.593654 C102.895828,447.098652 102.569563,447.989091 102.198297,448.573497 C101.82703,449.157903 101.246692,449.477318 100.909177,449.282814 C100.570724,449.088309 100.009136,448.568143 99.6603706,448.128277 C99.3097299,447.688411 98.8812732,446.774775 98.7059528,446.099362 L98.5915727,445.655035 C98.4153148,444.980515 98.2268689,443.860775 98.1715539,443.166625 L98.0309226,441.42679 C97.9756076,440.733533 97.9193551,439.596841 97.9062295,438.901799 L97.839664,435.12502 C97.8265384,434.429086 97.6512181,433.797392 97.4477715,433.720661 C97.2443248,433.643037 96.7399272,434.049891 96.3264712,434.622698 L95.3139258,436.025273 C94.8995323,436.598972 94.2198143,437.534914 93.8016706,438.105044 L89.4946026,443.999962 C89.0764589,444.570984 88.4051788,444.586152 88.0001606,444.033866" id="Fill-1" fill="#4A4A4A"></path>
        <text id="Infography-101" font-family="Hiragino Kaku Gothic StdN" font-size="36" font-weight="633" letter-spacing="3.5999999" fill="#000000"><tspan x="42" y="65">Infography 101</tspan></text>
        <circle ng-click="plus()" id="Oval-1" fill="#FFFFFF" cx="182.5" cy="221.5" ng-attr-r="{{alpha}}"></circle>
        <text id="$alpha" font-family="Hiragino Kaku Gothic StdN" font-size="36" font-weight="633" letter-spacing="3.5999999" fill="#000000"><tspan x="167" y="231">{{alpha}}</tspan></text>
        <text id="beta" font-family="Hiragino Kaku Gothic StdN" font-size="36" font-weight="633" letter-spacing="3.5999999" fill="#000000"><tspan x="483" y="359">beta : {{beta}}</tspan></text>
        <rect ng-click="grow()" id="$beta" fill="#F7F7F7" x="526" y="101" width="24" ng-attr-height="{{beta*2}}"></rect>
    </g>
</svg>